<mxfile host="Electron" modified="2024-05-13T08:54:47.602Z" agent="Mozilla/5.0 (Windows NT 10.0; Win64; x64) AppleWebKit/537.36 (KHTML, like Gecko) draw.io/24.2.5 Chrome/120.0.6099.109 Electron/28.1.0 Safari/537.36" etag="sjrMye_ty-hD5k3H4hye" version="24.2.5" type="device">
  <diagram name="Page-1" id="nxwWQQl9qqLAH7sPZ0em">
    <mxGraphModel dx="5136" dy="4867" grid="1" gridSize="10" guides="1" tooltips="1" connect="1" arrows="1" fold="1" page="1" pageScale="1" pageWidth="1169" pageHeight="827" math="0" shadow="0">
      <root>
        <mxCell id="0" />
        <mxCell id="1" parent="0" />
        <mxCell id="dTqUqbFhe9OZ-m3vgkK9-103" value="" style="html=1;dropTarget=0;whiteSpace=wrap;" parent="1" vertex="1">
          <mxGeometry x="-888" y="-663.25" width="870" height="620.5" as="geometry" />
        </mxCell>
        <mxCell id="dTqUqbFhe9OZ-m3vgkK9-104" value="" style="shape=module;jettyWidth=8;jettyHeight=4;" parent="dTqUqbFhe9OZ-m3vgkK9-103" vertex="1">
          <mxGeometry x="1" width="20" height="20" relative="1" as="geometry">
            <mxPoint x="-27" y="7" as="offset" />
          </mxGeometry>
        </mxCell>
        <mxCell id="dTqUqbFhe9OZ-m3vgkK9-105" value="" style="html=1;dropTarget=0;whiteSpace=wrap;" parent="1" vertex="1">
          <mxGeometry x="-433.18" y="230" width="677.5" height="320" as="geometry" />
        </mxCell>
        <mxCell id="dTqUqbFhe9OZ-m3vgkK9-106" value="" style="shape=module;jettyWidth=8;jettyHeight=4;" parent="dTqUqbFhe9OZ-m3vgkK9-105" vertex="1">
          <mxGeometry x="1" width="20" height="20" relative="1" as="geometry">
            <mxPoint x="-27" y="7" as="offset" />
          </mxGeometry>
        </mxCell>
        <mxCell id="dTqUqbFhe9OZ-m3vgkK9-107" value="" style="html=1;dropTarget=0;whiteSpace=wrap;" parent="1" vertex="1">
          <mxGeometry x="-155.51" y="912" width="700" height="430" as="geometry" />
        </mxCell>
        <mxCell id="dTqUqbFhe9OZ-m3vgkK9-108" value="" style="shape=module;jettyWidth=8;jettyHeight=4;" parent="dTqUqbFhe9OZ-m3vgkK9-107" vertex="1">
          <mxGeometry x="1" width="20" height="20" relative="1" as="geometry">
            <mxPoint x="-27" y="7" as="offset" />
          </mxGeometry>
        </mxCell>
        <mxCell id="dTqUqbFhe9OZ-m3vgkK9-109" value="" style="rounded=0;orthogonalLoop=1;jettySize=auto;html=1;endArrow=halfCircle;endFill=0;endSize=6;strokeWidth=1;sketch=0;exitX=1;exitY=0.5;exitDx=0;exitDy=0;" parent="1" source="dTqUqbFhe9OZ-m3vgkK9-185" edge="1">
          <mxGeometry relative="1" as="geometry">
            <mxPoint x="-63" y="-353" as="sourcePoint" />
            <mxPoint x="-153" y="-353" as="targetPoint" />
          </mxGeometry>
        </mxCell>
        <mxCell id="dTqUqbFhe9OZ-m3vgkK9-111" value="" style="ellipse;whiteSpace=wrap;html=1;align=center;aspect=fixed;fillColor=none;strokeColor=none;resizable=0;perimeter=centerPerimeter;rotatable=0;allowArrows=0;points=[];outlineConnect=1;" parent="1" vertex="1">
          <mxGeometry x="-251.93" y="335" width="10" height="10" as="geometry" />
        </mxCell>
        <mxCell id="dTqUqbFhe9OZ-m3vgkK9-112" value="" style="rounded=0;orthogonalLoop=1;jettySize=auto;html=1;endArrow=halfCircle;endFill=0;endSize=6;strokeWidth=1;sketch=0;exitX=1;exitY=0.5;exitDx=0;exitDy=0;entryX=0.821;entryY=0.438;entryDx=0;entryDy=0;entryPerimeter=0;" parent="1" source="dTqUqbFhe9OZ-m3vgkK9-160" target="dTqUqbFhe9OZ-m3vgkK9-105" edge="1">
          <mxGeometry relative="1" as="geometry">
            <mxPoint x="85.07" y="388.0000000000001" as="sourcePoint" />
            <mxPoint x="53.06999999999999" y="346.62" as="targetPoint" />
          </mxGeometry>
        </mxCell>
        <mxCell id="dTqUqbFhe9OZ-m3vgkK9-113" value="" style="rounded=0;orthogonalLoop=1;jettySize=auto;html=1;endArrow=oval;endFill=0;sketch=0;sourcePerimeterSpacing=0;targetPerimeterSpacing=0;endSize=10;exitX=0.5;exitY=1;exitDx=0;exitDy=0;" parent="1" source="gVl5tPRsffCISzd8quaa-81" target="dTqUqbFhe9OZ-m3vgkK9-114" edge="1">
          <mxGeometry relative="1" as="geometry">
            <mxPoint x="112" y="1322" as="sourcePoint" />
            <Array as="points">
              <mxPoint x="391" y="1447" />
            </Array>
          </mxGeometry>
        </mxCell>
        <mxCell id="dTqUqbFhe9OZ-m3vgkK9-114" value="" style="ellipse;whiteSpace=wrap;html=1;align=center;aspect=fixed;fillColor=none;strokeColor=none;resizable=0;perimeter=centerPerimeter;rotatable=0;allowArrows=0;points=[];outlineConnect=1;" parent="1" vertex="1">
          <mxGeometry x="572" y="1442" width="10" height="10" as="geometry" />
        </mxCell>
        <mxCell id="dTqUqbFhe9OZ-m3vgkK9-115" value="" style="html=1;dropTarget=0;whiteSpace=wrap;" parent="1" vertex="1">
          <mxGeometry x="-843" y="909.0000000000001" width="400" height="300" as="geometry" />
        </mxCell>
        <mxCell id="dTqUqbFhe9OZ-m3vgkK9-116" value="" style="shape=module;jettyWidth=8;jettyHeight=4;" parent="dTqUqbFhe9OZ-m3vgkK9-115" vertex="1">
          <mxGeometry x="1" width="20" height="20" relative="1" as="geometry">
            <mxPoint x="-27" y="7" as="offset" />
          </mxGeometry>
        </mxCell>
        <mxCell id="dTqUqbFhe9OZ-m3vgkK9-117" value="IRetrieveData" style="text;html=1;align=center;verticalAlign=middle;resizable=0;points=[];autosize=1;strokeColor=none;fillColor=none;" parent="1" vertex="1">
          <mxGeometry x="472" y="1412" width="100" height="30" as="geometry" />
        </mxCell>
        <mxCell id="dTqUqbFhe9OZ-m3vgkK9-118" value="IGetStocks" style="text;html=1;align=center;verticalAlign=middle;resizable=0;points=[];autosize=1;strokeColor=none;fillColor=none;" parent="1" vertex="1">
          <mxGeometry x="-393" y="742" width="80" height="30" as="geometry" />
        </mxCell>
        <mxCell id="dTqUqbFhe9OZ-m3vgkK9-119" value="IRetrieveGraph" style="text;html=1;align=center;verticalAlign=middle;resizable=0;points=[];autosize=1;strokeColor=none;fillColor=none;" parent="1" vertex="1">
          <mxGeometry x="-15.630000000000003" y="-384" width="100" height="30" as="geometry" />
        </mxCell>
        <mxCell id="dTqUqbFhe9OZ-m3vgkK9-122" value="" style="rounded=0;orthogonalLoop=1;jettySize=auto;html=1;endArrow=halfCircle;endFill=0;endSize=6;strokeWidth=1;sketch=0;exitX=0.5;exitY=0;exitDx=0;exitDy=0;entryX=0.529;entryY=0.863;entryDx=0;entryDy=0;entryPerimeter=0;" parent="1" source="gVl5tPRsffCISzd8quaa-75" target="dTqUqbFhe9OZ-m3vgkK9-121" edge="1">
          <mxGeometry relative="1" as="geometry">
            <mxPoint x="-358.32" y="867" as="sourcePoint" />
            <mxPoint x="-358" y="782" as="targetPoint" />
            <Array as="points">
              <mxPoint x="-74" y="777" />
            </Array>
          </mxGeometry>
        </mxCell>
        <mxCell id="dTqUqbFhe9OZ-m3vgkK9-123" value="" style="ellipse;whiteSpace=wrap;html=1;align=center;aspect=fixed;fillColor=none;strokeColor=none;resizable=0;perimeter=centerPerimeter;rotatable=0;allowArrows=0;points=[];outlineConnect=1;" parent="1" vertex="1">
          <mxGeometry x="246.99" y="972" width="10" height="10" as="geometry" />
        </mxCell>
        <mxCell id="dTqUqbFhe9OZ-m3vgkK9-124" value="Notification System" style="html=1;dropTarget=0;whiteSpace=wrap;" parent="1" vertex="1">
          <mxGeometry x="214.5" y="-444" width="180" height="90" as="geometry" />
        </mxCell>
        <mxCell id="dTqUqbFhe9OZ-m3vgkK9-125" value="" style="shape=module;jettyWidth=8;jettyHeight=4;" parent="dTqUqbFhe9OZ-m3vgkK9-124" vertex="1">
          <mxGeometry x="1" width="20" height="20" relative="1" as="geometry">
            <mxPoint x="-27" y="7" as="offset" />
          </mxGeometry>
        </mxCell>
        <mxCell id="dTqUqbFhe9OZ-m3vgkK9-126" value="" style="rounded=0;orthogonalLoop=1;jettySize=auto;html=1;endArrow=halfCircle;endFill=0;endSize=6;strokeWidth=1;sketch=0;exitX=0.75;exitY=1;exitDx=0;exitDy=0;" parent="1" source="dTqUqbFhe9OZ-m3vgkK9-185" edge="1">
          <mxGeometry relative="1" as="geometry">
            <mxPoint x="157" y="-373" as="sourcePoint" />
            <mxPoint x="-398" y="-168" as="targetPoint" />
          </mxGeometry>
        </mxCell>
        <mxCell id="dTqUqbFhe9OZ-m3vgkK9-129" value="" style="ellipse;whiteSpace=wrap;html=1;align=center;aspect=fixed;fillColor=none;strokeColor=none;resizable=0;perimeter=centerPerimeter;rotatable=0;allowArrows=0;points=[];outlineConnect=1;" parent="1" vertex="1">
          <mxGeometry x="-99.43" y="365" width="10" height="10" as="geometry" />
        </mxCell>
        <mxCell id="dTqUqbFhe9OZ-m3vgkK9-130" value="INotify" style="text;html=1;align=center;verticalAlign=middle;resizable=0;points=[];autosize=1;strokeColor=none;fillColor=none;" parent="1" vertex="1">
          <mxGeometry x="-393" y="-31" width="60" height="30" as="geometry" />
        </mxCell>
        <mxCell id="dTqUqbFhe9OZ-m3vgkK9-131" value="" style="rounded=0;orthogonalLoop=1;jettySize=auto;html=1;endArrow=halfCircle;endFill=0;endSize=6;strokeWidth=1;sketch=0;exitX=1;exitY=0.5;exitDx=0;exitDy=0;entryX=1.15;entryY=0.4;entryDx=0;entryDy=0;entryPerimeter=0;" parent="1" source="dTqUqbFhe9OZ-m3vgkK9-124" target="dTqUqbFhe9OZ-m3vgkK9-114" edge="1">
          <mxGeometry relative="1" as="geometry">
            <mxPoint x="562" y="335" as="sourcePoint" />
            <Array as="points">
              <mxPoint x="732" y="-398" />
              <mxPoint x="732" y="1447" />
            </Array>
          </mxGeometry>
        </mxCell>
        <mxCell id="dTqUqbFhe9OZ-m3vgkK9-132" value="" style="ellipse;whiteSpace=wrap;html=1;align=center;aspect=fixed;fillColor=none;strokeColor=none;resizable=0;perimeter=centerPerimeter;rotatable=0;allowArrows=0;points=[];outlineConnect=1;" parent="1" vertex="1">
          <mxGeometry x="92" y="1460" width="10" height="10" as="geometry" />
        </mxCell>
        <mxCell id="dTqUqbFhe9OZ-m3vgkK9-133" value="Stocks" style="text;html=1;align=center;verticalAlign=middle;resizable=0;points=[];autosize=1;strokeColor=none;fillColor=none;" parent="1" vertex="1">
          <mxGeometry x="-535.38" y="914.0000000000001" width="60" height="30" as="geometry" />
        </mxCell>
        <mxCell id="dTqUqbFhe9OZ-m3vgkK9-134" value=":StockSite" style="html=1;dropTarget=0;whiteSpace=wrap;" parent="1" vertex="1">
          <mxGeometry x="-733" y="919.0000000000001" width="180" height="90" as="geometry" />
        </mxCell>
        <mxCell id="dTqUqbFhe9OZ-m3vgkK9-135" value="" style="shape=module;jettyWidth=8;jettyHeight=4;" parent="dTqUqbFhe9OZ-m3vgkK9-134" vertex="1">
          <mxGeometry x="1" width="20" height="20" relative="1" as="geometry">
            <mxPoint x="-27" y="7" as="offset" />
          </mxGeometry>
        </mxCell>
        <mxCell id="dTqUqbFhe9OZ-m3vgkK9-136" value="" style="rounded=0;orthogonalLoop=1;jettySize=auto;html=1;endArrow=halfCircle;endFill=0;endSize=6;strokeWidth=1;sketch=0;exitX=0.5;exitY=0;exitDx=0;exitDy=0;" parent="1" source="dTqUqbFhe9OZ-m3vgkK9-140" target="dTqUqbFhe9OZ-m3vgkK9-138" edge="1">
          <mxGeometry relative="1" as="geometry">
            <mxPoint x="-790" y="854.0000000000001" as="sourcePoint" />
          </mxGeometry>
        </mxCell>
        <mxCell id="dTqUqbFhe9OZ-m3vgkK9-137" value="" style="rounded=0;orthogonalLoop=1;jettySize=auto;html=1;endArrow=oval;endFill=0;sketch=0;sourcePerimeterSpacing=0;targetPerimeterSpacing=0;endSize=10;exitX=0.5;exitY=1;exitDx=0;exitDy=0;" parent="1" source="dTqUqbFhe9OZ-m3vgkK9-134" target="dTqUqbFhe9OZ-m3vgkK9-138" edge="1">
          <mxGeometry relative="1" as="geometry">
            <mxPoint x="-832.5" y="1034" as="sourcePoint" />
          </mxGeometry>
        </mxCell>
        <mxCell id="dTqUqbFhe9OZ-m3vgkK9-138" value="" style="ellipse;whiteSpace=wrap;html=1;align=center;aspect=fixed;fillColor=none;strokeColor=none;resizable=0;perimeter=centerPerimeter;rotatable=0;allowArrows=0;points=[];outlineConnect=1;" parent="1" vertex="1">
          <mxGeometry x="-648" y="1047" width="10" height="10" as="geometry" />
        </mxCell>
        <mxCell id="dTqUqbFhe9OZ-m3vgkK9-139" value="IReadStocks" style="text;html=1;align=center;verticalAlign=middle;resizable=0;points=[];autosize=1;strokeColor=none;fillColor=none;" parent="1" vertex="1">
          <mxGeometry x="-625.38" y="1037" width="90" height="30" as="geometry" />
        </mxCell>
        <mxCell id="dTqUqbFhe9OZ-m3vgkK9-140" value=":StockInformation" style="html=1;dropTarget=0;whiteSpace=wrap;" parent="1" vertex="1">
          <mxGeometry x="-733" y="1079" width="180" height="90" as="geometry" />
        </mxCell>
        <mxCell id="dTqUqbFhe9OZ-m3vgkK9-141" value="" style="shape=module;jettyWidth=8;jettyHeight=4;" parent="dTqUqbFhe9OZ-m3vgkK9-140" vertex="1">
          <mxGeometry x="1" width="20" height="20" relative="1" as="geometry">
            <mxPoint x="-27" y="7" as="offset" />
          </mxGeometry>
        </mxCell>
        <mxCell id="dTqUqbFhe9OZ-m3vgkK9-142" value="Database" style="text;html=1;align=center;verticalAlign=middle;resizable=0;points=[];autosize=1;strokeColor=none;fillColor=none;" parent="1" vertex="1">
          <mxGeometry x="441.99" y="912" width="70" height="30" as="geometry" />
        </mxCell>
        <mxCell id="dTqUqbFhe9OZ-m3vgkK9-143" value=":UpdateDatabase" style="html=1;dropTarget=0;whiteSpace=wrap;" parent="1" vertex="1">
          <mxGeometry x="104.49000000000001" y="942" width="180" height="90" as="geometry" />
        </mxCell>
        <mxCell id="dTqUqbFhe9OZ-m3vgkK9-144" value="" style="shape=module;jettyWidth=8;jettyHeight=4;" parent="dTqUqbFhe9OZ-m3vgkK9-143" vertex="1">
          <mxGeometry x="1" width="20" height="20" relative="1" as="geometry">
            <mxPoint x="-27" y="7" as="offset" />
          </mxGeometry>
        </mxCell>
        <mxCell id="dTqUqbFhe9OZ-m3vgkK9-145" value=":RetrieveData" style="html=1;dropTarget=0;whiteSpace=wrap;" parent="1" vertex="1">
          <mxGeometry x="104.49000000000001" y="1212" width="180" height="90" as="geometry" />
        </mxCell>
        <mxCell id="dTqUqbFhe9OZ-m3vgkK9-146" value="" style="shape=module;jettyWidth=8;jettyHeight=4;" parent="dTqUqbFhe9OZ-m3vgkK9-145" vertex="1">
          <mxGeometry x="1" width="20" height="20" relative="1" as="geometry">
            <mxPoint x="-27" y="7" as="offset" />
          </mxGeometry>
        </mxCell>
        <mxCell id="dTqUqbFhe9OZ-m3vgkK9-147" value=":Database" style="html=1;dropTarget=0;whiteSpace=wrap;" parent="1" vertex="1">
          <mxGeometry x="104.49000000000001" y="1082" width="180" height="90" as="geometry" />
        </mxCell>
        <mxCell id="dTqUqbFhe9OZ-m3vgkK9-148" value="" style="shape=module;jettyWidth=8;jettyHeight=4;" parent="dTqUqbFhe9OZ-m3vgkK9-147" vertex="1">
          <mxGeometry x="1" width="20" height="20" relative="1" as="geometry">
            <mxPoint x="-27" y="7" as="offset" />
          </mxGeometry>
        </mxCell>
        <mxCell id="dTqUqbFhe9OZ-m3vgkK9-149" value="" style="rounded=0;orthogonalLoop=1;jettySize=auto;html=1;endArrow=halfCircle;endFill=0;endSize=6;strokeWidth=1;sketch=0;exitX=0.5;exitY=0;exitDx=0;exitDy=0;" parent="1" source="dTqUqbFhe9OZ-m3vgkK9-145" target="dTqUqbFhe9OZ-m3vgkK9-151" edge="1">
          <mxGeometry relative="1" as="geometry">
            <mxPoint x="44.99" y="1187" as="sourcePoint" />
          </mxGeometry>
        </mxCell>
        <mxCell id="dTqUqbFhe9OZ-m3vgkK9-150" value="" style="rounded=0;orthogonalLoop=1;jettySize=auto;html=1;endArrow=oval;endFill=0;sketch=0;sourcePerimeterSpacing=0;targetPerimeterSpacing=0;endSize=10;exitX=0.5;exitY=1;exitDx=0;exitDy=0;" parent="1" source="dTqUqbFhe9OZ-m3vgkK9-147" target="dTqUqbFhe9OZ-m3vgkK9-151" edge="1">
          <mxGeometry relative="1" as="geometry">
            <mxPoint x="4.990000000000002" y="1187" as="sourcePoint" />
          </mxGeometry>
        </mxCell>
        <mxCell id="dTqUqbFhe9OZ-m3vgkK9-151" value="" style="ellipse;whiteSpace=wrap;html=1;align=center;aspect=fixed;fillColor=none;strokeColor=none;resizable=0;perimeter=centerPerimeter;rotatable=0;allowArrows=0;points=[];outlineConnect=1;" parent="1" vertex="1">
          <mxGeometry x="189.49" y="1182" width="10" height="10" as="geometry" />
        </mxCell>
        <mxCell id="dTqUqbFhe9OZ-m3vgkK9-152" value="" style="rounded=0;orthogonalLoop=1;jettySize=auto;html=1;endArrow=halfCircle;endFill=0;endSize=6;strokeWidth=1;sketch=0;exitX=0.5;exitY=0;exitDx=0;exitDy=0;" parent="1" source="dTqUqbFhe9OZ-m3vgkK9-147" target="dTqUqbFhe9OZ-m3vgkK9-154" edge="1">
          <mxGeometry relative="1" as="geometry">
            <mxPoint x="4.990000000000002" y="1107" as="sourcePoint" />
          </mxGeometry>
        </mxCell>
        <mxCell id="dTqUqbFhe9OZ-m3vgkK9-153" value="" style="rounded=0;orthogonalLoop=1;jettySize=auto;html=1;endArrow=oval;endFill=0;sketch=0;sourcePerimeterSpacing=0;targetPerimeterSpacing=0;endSize=10;exitX=0.5;exitY=1;exitDx=0;exitDy=0;" parent="1" source="dTqUqbFhe9OZ-m3vgkK9-143" target="dTqUqbFhe9OZ-m3vgkK9-154" edge="1">
          <mxGeometry relative="1" as="geometry">
            <mxPoint x="-35.01" y="1107" as="sourcePoint" />
          </mxGeometry>
        </mxCell>
        <mxCell id="dTqUqbFhe9OZ-m3vgkK9-154" value="" style="ellipse;whiteSpace=wrap;html=1;align=center;aspect=fixed;fillColor=none;strokeColor=none;resizable=0;perimeter=centerPerimeter;rotatable=0;allowArrows=0;points=[];outlineConnect=1;" parent="1" vertex="1">
          <mxGeometry x="189.49" y="1052" width="10" height="10" as="geometry" />
        </mxCell>
        <mxCell id="dTqUqbFhe9OZ-m3vgkK9-155" value="IStore&lt;span style=&quot;background-color: initial;&quot;&gt;Data&lt;/span&gt;" style="text;html=1;align=center;verticalAlign=middle;resizable=0;points=[];autosize=1;strokeColor=none;fillColor=none;" parent="1" vertex="1">
          <mxGeometry x="226.99" y="1042" width="80" height="30" as="geometry" />
        </mxCell>
        <mxCell id="dTqUqbFhe9OZ-m3vgkK9-156" value="IReadData" style="text;html=1;align=center;verticalAlign=middle;resizable=0;points=[];autosize=1;strokeColor=none;fillColor=none;" parent="1" vertex="1">
          <mxGeometry x="226.99" y="1182" width="80" height="30" as="geometry" />
        </mxCell>
        <mxCell id="dTqUqbFhe9OZ-m3vgkK9-157" value="Graph" style="text;html=1;align=center;verticalAlign=middle;resizable=0;points=[];autosize=1;strokeColor=none;fillColor=none;" parent="1" vertex="1">
          <mxGeometry x="153.07" y="235" width="60" height="30" as="geometry" />
        </mxCell>
        <mxCell id="dTqUqbFhe9OZ-m3vgkK9-158" value=":PlotGraph" style="html=1;dropTarget=0;whiteSpace=wrap;" parent="1" vertex="1">
          <mxGeometry x="-356.93" y="435" width="180" height="90" as="geometry" />
        </mxCell>
        <mxCell id="dTqUqbFhe9OZ-m3vgkK9-159" value="" style="shape=module;jettyWidth=8;jettyHeight=4;" parent="dTqUqbFhe9OZ-m3vgkK9-158" vertex="1">
          <mxGeometry x="1" width="20" height="20" relative="1" as="geometry">
            <mxPoint x="-27" y="7" as="offset" />
          </mxGeometry>
        </mxCell>
        <mxCell id="dTqUqbFhe9OZ-m3vgkK9-160" value=":GraphFilters" style="html=1;dropTarget=0;whiteSpace=wrap;" parent="1" vertex="1">
          <mxGeometry x="-184.43" y="325" width="180" height="90" as="geometry" />
        </mxCell>
        <mxCell id="dTqUqbFhe9OZ-m3vgkK9-161" value="" style="shape=module;jettyWidth=8;jettyHeight=4;" parent="dTqUqbFhe9OZ-m3vgkK9-160" vertex="1">
          <mxGeometry x="1" width="20" height="20" relative="1" as="geometry">
            <mxPoint x="-27" y="7" as="offset" />
          </mxGeometry>
        </mxCell>
        <mxCell id="dTqUqbFhe9OZ-m3vgkK9-162" value="" style="rounded=0;orthogonalLoop=1;jettySize=auto;html=1;endArrow=halfCircle;endFill=0;endSize=6;strokeWidth=1;sketch=0;exitX=0.5;exitY=1;exitDx=0;exitDy=0;" parent="1" source="dTqUqbFhe9OZ-m3vgkK9-160" edge="1">
          <mxGeometry relative="1" as="geometry">
            <mxPoint x="-94.43" y="330" as="sourcePoint" />
            <mxPoint x="-93.93" y="480" as="targetPoint" />
          </mxGeometry>
        </mxCell>
        <mxCell id="dTqUqbFhe9OZ-m3vgkK9-163" value="" style="rounded=0;orthogonalLoop=1;jettySize=auto;html=1;endArrow=oval;endFill=0;sketch=0;sourcePerimeterSpacing=0;targetPerimeterSpacing=0;endSize=10;exitX=1;exitY=0.5;exitDx=0;exitDy=0;" parent="1" source="dTqUqbFhe9OZ-m3vgkK9-158" edge="1">
          <mxGeometry relative="1" as="geometry">
            <mxPoint x="-306.93" y="410" as="sourcePoint" />
            <mxPoint x="-94.43" y="480" as="targetPoint" />
          </mxGeometry>
        </mxCell>
        <mxCell id="dTqUqbFhe9OZ-m3vgkK9-164" value="" style="ellipse;whiteSpace=wrap;html=1;align=center;aspect=fixed;fillColor=none;strokeColor=none;resizable=0;perimeter=centerPerimeter;rotatable=0;allowArrows=0;points=[];outlineConnect=1;" parent="1" vertex="1">
          <mxGeometry x="-99.43" y="415" width="10" height="10" as="geometry" />
        </mxCell>
        <mxCell id="dTqUqbFhe9OZ-m3vgkK9-165" value="IPlotGraph" style="text;html=1;align=center;verticalAlign=middle;resizable=0;points=[];autosize=1;strokeColor=none;fillColor=none;" parent="1" vertex="1">
          <mxGeometry x="-84.43" y="436" width="80" height="30" as="geometry" />
        </mxCell>
        <mxCell id="dTqUqbFhe9OZ-m3vgkK9-166" value="User" style="text;html=1;align=center;verticalAlign=middle;resizable=0;points=[];autosize=1;strokeColor=none;fillColor=none;" parent="1" vertex="1">
          <mxGeometry x="-103" y="-658" width="50" height="30" as="geometry" />
        </mxCell>
        <mxCell id="dTqUqbFhe9OZ-m3vgkK9-169" value=":Login" style="html=1;dropTarget=0;whiteSpace=wrap;" parent="1" vertex="1">
          <mxGeometry x="-243" y="-570" width="180" height="90" as="geometry" />
        </mxCell>
        <mxCell id="dTqUqbFhe9OZ-m3vgkK9-170" value="" style="shape=module;jettyWidth=8;jettyHeight=4;" parent="dTqUqbFhe9OZ-m3vgkK9-169" vertex="1">
          <mxGeometry x="1" width="20" height="20" relative="1" as="geometry">
            <mxPoint x="-27" y="7" as="offset" />
          </mxGeometry>
        </mxCell>
        <mxCell id="dTqUqbFhe9OZ-m3vgkK9-171" value="" style="rounded=0;orthogonalLoop=1;jettySize=auto;html=1;endArrow=halfCircle;endFill=0;endSize=6;strokeWidth=1;sketch=0;exitX=0.5;exitY=0;exitDx=0;exitDy=0;" parent="1" source="dTqUqbFhe9OZ-m3vgkK9-169" edge="1">
          <mxGeometry relative="1" as="geometry">
            <mxPoint x="-158" y="-590.5" as="sourcePoint" />
            <mxPoint x="-153" y="-618" as="targetPoint" />
          </mxGeometry>
        </mxCell>
        <mxCell id="dTqUqbFhe9OZ-m3vgkK9-173" value="" style="ellipse;whiteSpace=wrap;html=1;align=center;aspect=fixed;fillColor=none;strokeColor=none;resizable=0;perimeter=centerPerimeter;rotatable=0;allowArrows=0;points=[];outlineConnect=1;" parent="1" vertex="1">
          <mxGeometry x="-158" y="-448" width="10" height="10" as="geometry" />
        </mxCell>
        <mxCell id="dTqUqbFhe9OZ-m3vgkK9-174" value=":UserPreferences" style="html=1;dropTarget=0;whiteSpace=wrap;" parent="1" vertex="1">
          <mxGeometry x="-243" y="-248" width="180" height="90" as="geometry" />
        </mxCell>
        <mxCell id="dTqUqbFhe9OZ-m3vgkK9-175" value="" style="shape=module;jettyWidth=8;jettyHeight=4;" parent="dTqUqbFhe9OZ-m3vgkK9-174" vertex="1">
          <mxGeometry x="1" width="20" height="20" relative="1" as="geometry">
            <mxPoint x="-27" y="7" as="offset" />
          </mxGeometry>
        </mxCell>
        <mxCell id="dTqUqbFhe9OZ-m3vgkK9-176" value="" style="rounded=0;orthogonalLoop=1;jettySize=auto;html=1;endArrow=halfCircle;endFill=0;endSize=6;strokeWidth=1;sketch=0;exitX=1;exitY=0.75;exitDx=0;exitDy=0;" parent="1" source="dTqUqbFhe9OZ-m3vgkK9-185" edge="1">
          <mxGeometry relative="1" as="geometry">
            <mxPoint x="-348.01" y="-328" as="sourcePoint" />
            <mxPoint x="-153" y="-328" as="targetPoint" />
          </mxGeometry>
        </mxCell>
        <mxCell id="dTqUqbFhe9OZ-m3vgkK9-177" value="" style="rounded=0;orthogonalLoop=1;jettySize=auto;html=1;endArrow=oval;endFill=0;sketch=0;sourcePerimeterSpacing=0;targetPerimeterSpacing=0;endSize=10;exitX=0.5;exitY=0;exitDx=0;exitDy=0;" parent="1" source="dTqUqbFhe9OZ-m3vgkK9-174" edge="1">
          <mxGeometry relative="1" as="geometry">
            <mxPoint x="-150.62" y="-253" as="sourcePoint" />
            <mxPoint x="-153" y="-328" as="targetPoint" />
          </mxGeometry>
        </mxCell>
        <mxCell id="dTqUqbFhe9OZ-m3vgkK9-178" value="" style="ellipse;whiteSpace=wrap;html=1;align=center;aspect=fixed;fillColor=none;strokeColor=none;resizable=0;perimeter=centerPerimeter;rotatable=0;allowArrows=0;points=[];outlineConnect=1;" parent="1" vertex="1">
          <mxGeometry x="-158.01" y="-328" width="10" height="10" as="geometry" />
        </mxCell>
        <mxCell id="dTqUqbFhe9OZ-m3vgkK9-179" value=":StockOptions" style="html=1;dropTarget=0;whiteSpace=wrap;" parent="1" vertex="1">
          <mxGeometry x="-813" y="-397" width="180" height="90" as="geometry" />
        </mxCell>
        <mxCell id="dTqUqbFhe9OZ-m3vgkK9-180" value="" style="shape=module;jettyWidth=8;jettyHeight=4;" parent="dTqUqbFhe9OZ-m3vgkK9-179" vertex="1">
          <mxGeometry x="1" width="20" height="20" relative="1" as="geometry">
            <mxPoint x="-27" y="7" as="offset" />
          </mxGeometry>
        </mxCell>
        <mxCell id="dTqUqbFhe9OZ-m3vgkK9-181" value=":Portfolio" style="html=1;dropTarget=0;whiteSpace=wrap;" parent="1" vertex="1">
          <mxGeometry x="-533" y="-570" width="180" height="90" as="geometry" />
        </mxCell>
        <mxCell id="dTqUqbFhe9OZ-m3vgkK9-182" value="" style="shape=module;jettyWidth=8;jettyHeight=4;" parent="dTqUqbFhe9OZ-m3vgkK9-181" vertex="1">
          <mxGeometry x="1" width="20" height="20" relative="1" as="geometry">
            <mxPoint x="-27" y="7" as="offset" />
          </mxGeometry>
        </mxCell>
        <mxCell id="dTqUqbFhe9OZ-m3vgkK9-183" value=":Watchlist" style="html=1;dropTarget=0;whiteSpace=wrap;" parent="1" vertex="1">
          <mxGeometry x="-623" y="-248" width="180" height="90" as="geometry" />
        </mxCell>
        <mxCell id="dTqUqbFhe9OZ-m3vgkK9-184" value="" style="shape=module;jettyWidth=8;jettyHeight=4;" parent="dTqUqbFhe9OZ-m3vgkK9-183" vertex="1">
          <mxGeometry x="1" width="20" height="20" relative="1" as="geometry">
            <mxPoint x="-27" y="7" as="offset" />
          </mxGeometry>
        </mxCell>
        <mxCell id="dTqUqbFhe9OZ-m3vgkK9-185" value=":UserDetails" style="html=1;dropTarget=0;whiteSpace=wrap;" parent="1" vertex="1">
          <mxGeometry x="-533" y="-397" width="180" height="90" as="geometry" />
        </mxCell>
        <mxCell id="dTqUqbFhe9OZ-m3vgkK9-186" value="" style="shape=module;jettyWidth=8;jettyHeight=4;" parent="dTqUqbFhe9OZ-m3vgkK9-185" vertex="1">
          <mxGeometry x="1" width="20" height="20" relative="1" as="geometry">
            <mxPoint x="-27" y="7" as="offset" />
          </mxGeometry>
        </mxCell>
        <mxCell id="dTqUqbFhe9OZ-m3vgkK9-187" value="" style="rounded=0;orthogonalLoop=1;jettySize=auto;html=1;endArrow=halfCircle;endFill=0;endSize=6;strokeWidth=1;sketch=0;exitX=0.5;exitY=0;exitDx=0;exitDy=0;" parent="1" source="dTqUqbFhe9OZ-m3vgkK9-185" target="dTqUqbFhe9OZ-m3vgkK9-189" edge="1">
          <mxGeometry relative="1" as="geometry">
            <mxPoint x="-433" y="-443" as="sourcePoint" />
          </mxGeometry>
        </mxCell>
        <mxCell id="dTqUqbFhe9OZ-m3vgkK9-188" value="" style="rounded=0;orthogonalLoop=1;jettySize=auto;html=1;endArrow=oval;endFill=0;sketch=0;sourcePerimeterSpacing=0;targetPerimeterSpacing=0;endSize=10;exitX=0.5;exitY=1;exitDx=0;exitDy=0;" parent="1" source="dTqUqbFhe9OZ-m3vgkK9-181" target="dTqUqbFhe9OZ-m3vgkK9-189" edge="1">
          <mxGeometry relative="1" as="geometry">
            <mxPoint x="-473" y="-443" as="sourcePoint" />
          </mxGeometry>
        </mxCell>
        <mxCell id="dTqUqbFhe9OZ-m3vgkK9-189" value="" style="ellipse;whiteSpace=wrap;html=1;align=center;aspect=fixed;fillColor=none;strokeColor=none;resizable=0;perimeter=centerPerimeter;rotatable=0;allowArrows=0;points=[];outlineConnect=1;" parent="1" vertex="1">
          <mxGeometry x="-448" y="-448" width="10" height="10" as="geometry" />
        </mxCell>
        <mxCell id="dTqUqbFhe9OZ-m3vgkK9-190" value="" style="rounded=0;orthogonalLoop=1;jettySize=auto;html=1;endArrow=halfCircle;endFill=0;endSize=6;strokeWidth=1;sketch=0;exitX=1;exitY=0.25;exitDx=0;exitDy=0;" parent="1" source="dTqUqbFhe9OZ-m3vgkK9-185" edge="1">
          <mxGeometry relative="1" as="geometry">
            <mxPoint x="-253" y="-373.96" as="sourcePoint" />
            <mxPoint x="-153" y="-374" as="targetPoint" />
            <Array as="points" />
          </mxGeometry>
        </mxCell>
        <mxCell id="dTqUqbFhe9OZ-m3vgkK9-192" value="" style="ellipse;whiteSpace=wrap;html=1;align=center;aspect=fixed;fillColor=none;strokeColor=none;resizable=0;perimeter=centerPerimeter;rotatable=0;allowArrows=0;points=[];outlineConnect=1;" parent="1" vertex="1">
          <mxGeometry x="-298" y="-357" width="10" height="10" as="geometry" />
        </mxCell>
        <mxCell id="dTqUqbFhe9OZ-m3vgkK9-193" value="" style="rounded=0;orthogonalLoop=1;jettySize=auto;html=1;endArrow=halfCircle;endFill=0;endSize=6;strokeWidth=1;sketch=0;exitX=0.25;exitY=1;exitDx=0;exitDy=0;" parent="1" source="dTqUqbFhe9OZ-m3vgkK9-185" target="dTqUqbFhe9OZ-m3vgkK9-195" edge="1">
          <mxGeometry relative="1" as="geometry">
            <mxPoint x="-433" y="-272" as="sourcePoint" />
          </mxGeometry>
        </mxCell>
        <mxCell id="dTqUqbFhe9OZ-m3vgkK9-194" value="" style="rounded=0;orthogonalLoop=1;jettySize=auto;html=1;endArrow=oval;endFill=0;sketch=0;sourcePerimeterSpacing=0;targetPerimeterSpacing=0;endSize=10;exitX=0.75;exitY=0;exitDx=0;exitDy=0;" parent="1" source="dTqUqbFhe9OZ-m3vgkK9-183" target="dTqUqbFhe9OZ-m3vgkK9-195" edge="1">
          <mxGeometry relative="1" as="geometry">
            <mxPoint x="-473" y="-272" as="sourcePoint" />
          </mxGeometry>
        </mxCell>
        <mxCell id="dTqUqbFhe9OZ-m3vgkK9-195" value="" style="ellipse;whiteSpace=wrap;html=1;align=center;aspect=fixed;fillColor=none;strokeColor=none;resizable=0;perimeter=centerPerimeter;rotatable=0;allowArrows=0;points=[];outlineConnect=1;" parent="1" vertex="1">
          <mxGeometry x="-493" y="-278" width="10" height="10" as="geometry" />
        </mxCell>
        <mxCell id="dTqUqbFhe9OZ-m3vgkK9-196" value="" style="rounded=0;orthogonalLoop=1;jettySize=auto;html=1;endArrow=halfCircle;endFill=0;endSize=6;strokeWidth=1;sketch=0;exitX=0;exitY=0.5;exitDx=0;exitDy=0;" parent="1" source="dTqUqbFhe9OZ-m3vgkK9-185" target="dTqUqbFhe9OZ-m3vgkK9-198" edge="1">
          <mxGeometry relative="1" as="geometry">
            <mxPoint x="-563" y="-353" as="sourcePoint" />
          </mxGeometry>
        </mxCell>
        <mxCell id="dTqUqbFhe9OZ-m3vgkK9-197" value="" style="rounded=0;orthogonalLoop=1;jettySize=auto;html=1;endArrow=oval;endFill=0;sketch=0;sourcePerimeterSpacing=0;targetPerimeterSpacing=0;endSize=10;exitX=1;exitY=0.5;exitDx=0;exitDy=0;" parent="1" source="dTqUqbFhe9OZ-m3vgkK9-179" target="dTqUqbFhe9OZ-m3vgkK9-198" edge="1">
          <mxGeometry relative="1" as="geometry">
            <mxPoint x="-603" y="-353" as="sourcePoint" />
          </mxGeometry>
        </mxCell>
        <mxCell id="dTqUqbFhe9OZ-m3vgkK9-198" value="" style="ellipse;whiteSpace=wrap;html=1;align=center;aspect=fixed;fillColor=none;strokeColor=none;resizable=0;perimeter=centerPerimeter;rotatable=0;allowArrows=0;points=[];outlineConnect=1;" parent="1" vertex="1">
          <mxGeometry x="-583" y="-357" width="10" height="10" as="geometry" />
        </mxCell>
        <mxCell id="dTqUqbFhe9OZ-m3vgkK9-199" value="ILogin" style="text;html=1;align=center;verticalAlign=middle;resizable=0;points=[];autosize=1;strokeColor=none;fillColor=none;" parent="1" vertex="1">
          <mxGeometry x="-183" y="-748" width="60" height="30" as="geometry" />
        </mxCell>
        <mxCell id="dTqUqbFhe9OZ-m3vgkK9-200" value="IPortfolio" style="text;html=1;align=center;verticalAlign=middle;resizable=0;points=[];autosize=1;strokeColor=none;fillColor=none;" parent="1" vertex="1">
          <mxGeometry x="-433" y="-448" width="70" height="30" as="geometry" />
        </mxCell>
        <mxCell id="dTqUqbFhe9OZ-m3vgkK9-201" value="IWatchlist" style="text;html=1;align=center;verticalAlign=middle;resizable=0;points=[];autosize=1;strokeColor=none;fillColor=none;" parent="1" vertex="1">
          <mxGeometry x="-583" y="-288" width="80" height="30" as="geometry" />
        </mxCell>
        <mxCell id="dTqUqbFhe9OZ-m3vgkK9-202" value="IStockOptions" style="text;html=1;align=center;verticalAlign=middle;resizable=0;points=[];autosize=1;strokeColor=none;fillColor=none;" parent="1" vertex="1">
          <mxGeometry x="-633" y="-388" width="100" height="30" as="geometry" />
        </mxCell>
        <mxCell id="dTqUqbFhe9OZ-m3vgkK9-203" value="IUserPreferences" style="text;html=1;align=center;verticalAlign=middle;resizable=0;points=[];autosize=1;strokeColor=none;fillColor=none;" parent="1" vertex="1">
          <mxGeometry x="-154.25" y="-326" width="120" height="30" as="geometry" />
        </mxCell>
        <mxCell id="dTqUqbFhe9OZ-m3vgkK9-204" value="IUser" style="text;html=1;align=center;verticalAlign=middle;resizable=0;points=[];autosize=1;strokeColor=none;fillColor=none;" parent="1" vertex="1">
          <mxGeometry x="-213" y="-414" width="50" height="30" as="geometry" />
        </mxCell>
        <mxCell id="dTqUqbFhe9OZ-m3vgkK9-205" value="&lt;font style=&quot;font-size: 48px;&quot;&gt;Style Used:&amp;nbsp;&lt;/font&gt;&lt;div&gt;&lt;font style=&quot;font-size: 48px;&quot;&gt;n-Tiered&lt;/font&gt;&lt;/div&gt;" style="text;html=1;align=center;verticalAlign=middle;whiteSpace=wrap;rounded=0;" parent="1" vertex="1">
          <mxGeometry x="-877" y="1442" width="319" height="160" as="geometry" />
        </mxCell>
        <mxCell id="gVl5tPRsffCISzd8quaa-6" value="" style="rounded=0;orthogonalLoop=1;jettySize=auto;html=1;endArrow=oval;endFill=0;sketch=0;sourcePerimeterSpacing=0;targetPerimeterSpacing=0;endSize=10;exitX=0;exitY=0.25;exitDx=0;exitDy=0;" parent="1" source="dTqUqbFhe9OZ-m3vgkK9-124" target="dTqUqbFhe9OZ-m3vgkK9-128" edge="1">
          <mxGeometry relative="1" as="geometry">
            <mxPoint x="772" y="895" as="sourcePoint" />
            <mxPoint x="-488" y="895" as="targetPoint" />
            <Array as="points">
              <mxPoint x="92" y="-421" />
              <mxPoint x="92" y="-8" />
            </Array>
          </mxGeometry>
        </mxCell>
        <mxCell id="dTqUqbFhe9OZ-m3vgkK9-128" value="" style="ellipse;whiteSpace=wrap;html=1;align=center;aspect=fixed;fillColor=none;strokeColor=none;resizable=0;perimeter=centerPerimeter;rotatable=0;allowArrows=0;points=[];outlineConnect=1;" parent="1" vertex="1">
          <mxGeometry x="-403" y="-13" width="10" height="10" as="geometry" />
        </mxCell>
        <mxCell id="gVl5tPRsffCISzd8quaa-7" value="" style="rounded=0;orthogonalLoop=1;jettySize=auto;html=1;endArrow=oval;endFill=0;sketch=0;sourcePerimeterSpacing=0;targetPerimeterSpacing=0;endSize=10;exitX=0.5;exitY=1;exitDx=0;exitDy=0;" parent="1" source="dTqUqbFhe9OZ-m3vgkK9-183" target="gVl5tPRsffCISzd8quaa-5" edge="1">
          <mxGeometry relative="1" as="geometry">
            <mxPoint x="-533" y="-158" as="sourcePoint" />
            <mxPoint x="-533" y="-98" as="targetPoint" />
          </mxGeometry>
        </mxCell>
        <mxCell id="gVl5tPRsffCISzd8quaa-5" value="" style="ellipse;whiteSpace=wrap;html=1;align=center;aspect=fixed;fillColor=none;strokeColor=none;resizable=0;perimeter=centerPerimeter;rotatable=0;allowArrows=0;points=[];outlineConnect=1;" parent="1" vertex="1">
          <mxGeometry x="-538" y="-108" width="10" height="10" as="geometry" />
        </mxCell>
        <mxCell id="gVl5tPRsffCISzd8quaa-8" value="" style="whiteSpace=wrap;html=1;aspect=fixed;" parent="1" vertex="1">
          <mxGeometry x="-536" y="-44.75" width="4.75" height="4.75" as="geometry" />
        </mxCell>
        <mxCell id="gVl5tPRsffCISzd8quaa-10" value="" style="whiteSpace=wrap;html=1;aspect=fixed;" parent="1" vertex="1">
          <mxGeometry x="-400.38" y="-44.75" width="4.75" height="4.75" as="geometry" />
        </mxCell>
        <mxCell id="gVl5tPRsffCISzd8quaa-11" value="" style="endArrow=classic;html=1;rounded=0;entryX=0.428;entryY=-0.152;entryDx=0;entryDy=0;entryPerimeter=0;" parent="1" target="gVl5tPRsffCISzd8quaa-10" edge="1">
          <mxGeometry width="50" height="50" relative="1" as="geometry">
            <mxPoint x="-398.29999999999995" y="-172" as="sourcePoint" />
            <mxPoint x="-398.26999999999975" y="-51.71399999999994" as="targetPoint" />
          </mxGeometry>
        </mxCell>
        <mxCell id="gVl5tPRsffCISzd8quaa-12" value="&lt;font style=&quot;font-size: 8px;&quot;&gt;&amp;lt;&amp;lt;delegate&amp;gt;&amp;gt;&lt;/font&gt;" style="text;html=1;align=center;verticalAlign=middle;whiteSpace=wrap;rounded=0;" parent="1" vertex="1">
          <mxGeometry x="-400.38" y="-128" width="60" height="30" as="geometry" />
        </mxCell>
        <mxCell id="gVl5tPRsffCISzd8quaa-13" value="" style="rounded=0;orthogonalLoop=1;jettySize=auto;html=1;endArrow=halfCircle;endFill=0;endSize=6;strokeWidth=1;sketch=0;exitX=0.5;exitY=1;exitDx=0;exitDy=0;entryX=0.734;entryY=0.148;entryDx=0;entryDy=0;entryPerimeter=0;" parent="1" source="gVl5tPRsffCISzd8quaa-10" target="dTqUqbFhe9OZ-m3vgkK9-128" edge="1">
          <mxGeometry relative="1" as="geometry">
            <mxPoint x="-463" y="12" as="sourcePoint" />
            <mxPoint x="-423" y="2" as="targetPoint" />
          </mxGeometry>
        </mxCell>
        <mxCell id="gVl5tPRsffCISzd8quaa-14" value="" style="endArrow=classic;html=1;rounded=0;exitX=0.476;exitY=0.501;exitDx=0;exitDy=0;exitPerimeter=0;" parent="1" edge="1">
          <mxGeometry width="50" height="50" relative="1" as="geometry">
            <mxPoint x="-533.739" y="-42.370249999999714" as="sourcePoint" />
            <mxPoint x="-533" y="-98" as="targetPoint" />
          </mxGeometry>
        </mxCell>
        <mxCell id="gVl5tPRsffCISzd8quaa-16" value="&lt;font style=&quot;font-size: 8px;&quot;&gt;&amp;lt;&amp;lt;delegate&amp;gt;&amp;gt;&lt;/font&gt;" style="text;html=1;align=center;verticalAlign=middle;whiteSpace=wrap;rounded=0;" parent="1" vertex="1">
          <mxGeometry x="-533" y="-88" width="60" height="30" as="geometry" />
        </mxCell>
        <mxCell id="gVl5tPRsffCISzd8quaa-17" value="" style="rounded=0;orthogonalLoop=1;jettySize=auto;html=1;endArrow=halfCircle;endFill=0;endSize=6;strokeWidth=1;sketch=0;exitX=0;exitY=0.75;exitDx=0;exitDy=0;entryX=0.306;entryY=0.465;entryDx=0;entryDy=0;entryPerimeter=0;" parent="1" source="dTqUqbFhe9OZ-m3vgkK9-124" target="gVl5tPRsffCISzd8quaa-54" edge="1">
          <mxGeometry relative="1" as="geometry">
            <mxPoint x="772" y="942" as="sourcePoint" />
            <mxPoint x="-628" y="940" as="targetPoint" />
            <Array as="points">
              <mxPoint x="132" y="-376" />
              <mxPoint x="132" y="40" />
            </Array>
          </mxGeometry>
        </mxCell>
        <mxCell id="gVl5tPRsffCISzd8quaa-18" value="ISetWatchPrice" style="text;html=1;align=center;verticalAlign=middle;whiteSpace=wrap;rounded=0;" parent="1" vertex="1">
          <mxGeometry x="-558" y="42" width="60" height="30" as="geometry" />
        </mxCell>
        <mxCell id="gVl5tPRsffCISzd8quaa-21" value="" style="rounded=0;orthogonalLoop=1;jettySize=auto;html=1;endArrow=oval;endFill=0;sketch=0;sourcePerimeterSpacing=0;targetPerimeterSpacing=0;endSize=10;exitX=0.5;exitY=1;exitDx=0;exitDy=0;entryX=0.845;entryY=0.46;entryDx=0;entryDy=0;entryPerimeter=0;" parent="1" source="dTqUqbFhe9OZ-m3vgkK9-169" edge="1">
          <mxGeometry relative="1" as="geometry">
            <mxPoint x="-153" y="-476" as="sourcePoint" />
            <mxPoint x="-152.85000000000014" y="-373.81999999999994" as="targetPoint" />
          </mxGeometry>
        </mxCell>
        <mxCell id="gVl5tPRsffCISzd8quaa-23" value="" style="whiteSpace=wrap;html=1;aspect=fixed;" parent="1" vertex="1">
          <mxGeometry x="-155.38" y="-666" width="4.75" height="4.75" as="geometry" />
        </mxCell>
        <mxCell id="gVl5tPRsffCISzd8quaa-24" value="&lt;font style=&quot;font-size: 8px;&quot;&gt;&amp;lt;&amp;lt;delegate&amp;gt;&amp;gt;&lt;/font&gt;" style="text;html=1;align=center;verticalAlign=middle;whiteSpace=wrap;rounded=0;" parent="1" vertex="1">
          <mxGeometry x="-218.01" y="-648" width="60" height="30" as="geometry" />
        </mxCell>
        <mxCell id="gVl5tPRsffCISzd8quaa-25" value="" style="endArrow=classic;html=1;rounded=0;" parent="1" edge="1">
          <mxGeometry width="50" height="50" relative="1" as="geometry">
            <mxPoint x="-153" y="-612" as="sourcePoint" />
            <mxPoint x="-153" y="-658" as="targetPoint" />
          </mxGeometry>
        </mxCell>
        <mxCell id="gVl5tPRsffCISzd8quaa-26" value="" style="rounded=0;orthogonalLoop=1;jettySize=auto;html=1;endArrow=halfCircle;endFill=0;endSize=6;strokeWidth=1;sketch=0;exitX=0.419;exitY=0.328;exitDx=0;exitDy=0;exitPerimeter=0;entryX=0.461;entryY=0.11;entryDx=0;entryDy=0;entryPerimeter=0;" parent="1" source="gVl5tPRsffCISzd8quaa-23" target="gVl5tPRsffCISzd8quaa-59" edge="1">
          <mxGeometry relative="1" as="geometry">
            <mxPoint x="-153.385" y="-665.23" as="sourcePoint" />
            <mxPoint x="-153" y="-934" as="targetPoint" />
          </mxGeometry>
        </mxCell>
        <mxCell id="gVl5tPRsffCISzd8quaa-28" value="" style="whiteSpace=wrap;html=1;aspect=fixed;" parent="1" vertex="1">
          <mxGeometry x="-158.01" y="1125" width="4.75" height="4.75" as="geometry" />
        </mxCell>
        <mxCell id="gVl5tPRsffCISzd8quaa-31" value="" style="endArrow=classic;html=1;rounded=0;exitX=1;exitY=0.5;exitDx=0;exitDy=0;entryX=0.174;entryY=0.53;entryDx=0;entryDy=0;entryPerimeter=0;" parent="1" source="gVl5tPRsffCISzd8quaa-28" target="gVl5tPRsffCISzd8quaa-46" edge="1">
          <mxGeometry width="50" height="50" relative="1" as="geometry">
            <mxPoint x="-151.51" y="1127" as="sourcePoint" />
            <mxPoint x="-34.01" y="1127" as="targetPoint" />
          </mxGeometry>
        </mxCell>
        <mxCell id="gVl5tPRsffCISzd8quaa-32" value="&lt;font style=&quot;font-size: 8px;&quot;&gt;&amp;lt;&amp;lt;delegate&amp;gt;&amp;gt;&lt;/font&gt;" style="text;html=1;align=center;verticalAlign=middle;whiteSpace=wrap;rounded=0;" parent="1" vertex="1">
          <mxGeometry x="-128.01" y="1094" width="60" height="30" as="geometry" />
        </mxCell>
        <mxCell id="gVl5tPRsffCISzd8quaa-33" value="" style="whiteSpace=wrap;html=1;aspect=fixed;" parent="1" vertex="1">
          <mxGeometry x="-20.379999999999995" y="-355" width="4.75" height="4.75" as="geometry" />
        </mxCell>
        <mxCell id="gVl5tPRsffCISzd8quaa-34" value="" style="rounded=0;orthogonalLoop=1;jettySize=auto;html=1;endArrow=halfCircle;endFill=0;endSize=6;strokeWidth=1;sketch=0;exitX=1;exitY=0.5;exitDx=0;exitDy=0;entryX=1.021;entryY=0.463;entryDx=0;entryDy=0;entryPerimeter=0;" parent="1" source="gVl5tPRsffCISzd8quaa-33" target="gVl5tPRsffCISzd8quaa-57" edge="1">
          <mxGeometry relative="1" as="geometry">
            <mxPoint x="-53" y="-328" as="sourcePoint" />
            <mxPoint x="47" y="-353" as="targetPoint" />
          </mxGeometry>
        </mxCell>
        <mxCell id="gVl5tPRsffCISzd8quaa-35" value="" style="endArrow=classic;html=1;rounded=0;entryX=0;entryY=0.5;entryDx=0;entryDy=0;" parent="1" target="gVl5tPRsffCISzd8quaa-33" edge="1">
          <mxGeometry width="50" height="50" relative="1" as="geometry">
            <mxPoint x="-153" y="-353" as="sourcePoint" />
            <mxPoint x="-93" y="-358" as="targetPoint" />
          </mxGeometry>
        </mxCell>
        <mxCell id="gVl5tPRsffCISzd8quaa-36" value="&lt;font style=&quot;font-size: 8px;&quot;&gt;&amp;lt;&amp;lt;delegate&amp;gt;&amp;gt;&lt;/font&gt;" style="text;html=1;align=center;verticalAlign=middle;whiteSpace=wrap;rounded=0;" parent="1" vertex="1">
          <mxGeometry x="-113" y="-388" width="60" height="30" as="geometry" />
        </mxCell>
        <mxCell id="gVl5tPRsffCISzd8quaa-38" value="" style="whiteSpace=wrap;html=1;aspect=fixed;" parent="1" vertex="1">
          <mxGeometry x="-435.31" y="388" width="4.75" height="4.75" as="geometry" />
        </mxCell>
        <mxCell id="gVl5tPRsffCISzd8quaa-39" value="" style="rounded=0;orthogonalLoop=1;jettySize=auto;html=1;endArrow=oval;endFill=0;sketch=0;sourcePerimeterSpacing=0;targetPerimeterSpacing=0;endSize=10;exitX=0;exitY=0.5;exitDx=0;exitDy=0;" parent="1" source="dTqUqbFhe9OZ-m3vgkK9-158" edge="1">
          <mxGeometry relative="1" as="geometry">
            <mxPoint x="-296.93" y="479.78" as="sourcePoint" />
            <mxPoint x="-396.93" y="479.78" as="targetPoint" />
          </mxGeometry>
        </mxCell>
        <mxCell id="gVl5tPRsffCISzd8quaa-40" value="" style="endArrow=classic;html=1;rounded=0;exitX=1;exitY=0.5;exitDx=0;exitDy=0;" parent="1" source="gVl5tPRsffCISzd8quaa-38" edge="1">
          <mxGeometry width="50" height="50" relative="1" as="geometry">
            <mxPoint x="-446.93" y="405" as="sourcePoint" />
            <mxPoint x="-396.93" y="475" as="targetPoint" />
            <Array as="points">
              <mxPoint x="-396.93" y="390" />
            </Array>
          </mxGeometry>
        </mxCell>
        <mxCell id="gVl5tPRsffCISzd8quaa-41" value="&lt;font style=&quot;font-size: 8px;&quot;&gt;&amp;lt;&amp;lt;delegate&amp;gt;&amp;gt;&lt;/font&gt;" style="text;html=1;align=center;verticalAlign=middle;whiteSpace=wrap;rounded=0;" parent="1" vertex="1">
          <mxGeometry x="-416.93" y="362.75" width="60" height="30" as="geometry" />
        </mxCell>
        <mxCell id="gVl5tPRsffCISzd8quaa-42" value="" style="whiteSpace=wrap;html=1;aspect=fixed;" parent="1" vertex="1">
          <mxGeometry x="242.07" y="366.25" width="4.75" height="4.75" as="geometry" />
        </mxCell>
        <mxCell id="gVl5tPRsffCISzd8quaa-43" value="" style="endArrow=classic;html=1;rounded=0;entryX=0;entryY=0.5;entryDx=0;entryDy=0;" parent="1" target="gVl5tPRsffCISzd8quaa-42" edge="1">
          <mxGeometry width="50" height="50" relative="1" as="geometry">
            <mxPoint x="123.07" y="368.62" as="sourcePoint" />
            <mxPoint x="253.07" y="336.62" as="targetPoint" />
            <Array as="points" />
          </mxGeometry>
        </mxCell>
        <mxCell id="gVl5tPRsffCISzd8quaa-44" value="" style="rounded=0;orthogonalLoop=1;jettySize=auto;html=1;endArrow=halfCircle;endFill=0;endSize=6;strokeWidth=1;sketch=0;exitX=1;exitY=0.5;exitDx=0;exitDy=0;entryX=0.557;entryY=1.322;entryDx=0;entryDy=0;entryPerimeter=0;" parent="1" source="gVl5tPRsffCISzd8quaa-42" target="dTqUqbFhe9OZ-m3vgkK9-114" edge="1">
          <mxGeometry relative="1" as="geometry">
            <mxPoint x="354.77" y="380" as="sourcePoint" />
            <mxPoint x="354.77" y="330" as="targetPoint" />
            <Array as="points">
              <mxPoint x="692" y="370" />
              <mxPoint x="692" y="1042" />
              <mxPoint x="692" y="1400" />
              <mxPoint x="577" y="1400" />
            </Array>
          </mxGeometry>
        </mxCell>
        <mxCell id="gVl5tPRsffCISzd8quaa-45" value="&lt;font style=&quot;font-size: 8px;&quot;&gt;&amp;lt;&amp;lt;delegate&amp;gt;&amp;gt;&lt;/font&gt;" style="text;html=1;align=center;verticalAlign=middle;whiteSpace=wrap;rounded=0;" parent="1" vertex="1">
          <mxGeometry x="148.07" y="335" width="60" height="30" as="geometry" />
        </mxCell>
        <mxCell id="gVl5tPRsffCISzd8quaa-47" value="" style="rounded=0;orthogonalLoop=1;jettySize=auto;html=1;endArrow=oval;endFill=0;sketch=0;sourcePerimeterSpacing=0;targetPerimeterSpacing=0;endSize=10;exitX=0;exitY=0.5;exitDx=0;exitDy=0;" parent="1" source="dTqUqbFhe9OZ-m3vgkK9-147" target="gVl5tPRsffCISzd8quaa-46" edge="1">
          <mxGeometry relative="1" as="geometry">
            <mxPoint x="104.99000000000001" y="1127" as="sourcePoint" />
            <mxPoint x="-28.009999999999998" y="1127" as="targetPoint" />
          </mxGeometry>
        </mxCell>
        <mxCell id="gVl5tPRsffCISzd8quaa-46" value="" style="ellipse;whiteSpace=wrap;html=1;align=center;aspect=fixed;fillColor=none;strokeColor=none;resizable=0;perimeter=centerPerimeter;rotatable=0;allowArrows=0;points=[];outlineConnect=1;" parent="1" vertex="1">
          <mxGeometry x="-28.009999999999998" y="1122" width="10" height="10" as="geometry" />
        </mxCell>
        <mxCell id="gVl5tPRsffCISzd8quaa-56" value="" style="rounded=0;orthogonalLoop=1;jettySize=auto;html=1;endArrow=oval;endFill=0;sketch=0;sourcePerimeterSpacing=0;targetPerimeterSpacing=0;endSize=10;exitX=0.5;exitY=1;exitDx=0;exitDy=0;" parent="1" source="gVl5tPRsffCISzd8quaa-8" target="gVl5tPRsffCISzd8quaa-54" edge="1">
          <mxGeometry relative="1" as="geometry">
            <mxPoint x="-540" y="-40" as="sourcePoint" />
            <mxPoint x="-533" y="40" as="targetPoint" />
          </mxGeometry>
        </mxCell>
        <mxCell id="gVl5tPRsffCISzd8quaa-54" value="" style="ellipse;whiteSpace=wrap;html=1;align=center;aspect=fixed;fillColor=none;strokeColor=none;resizable=0;perimeter=centerPerimeter;rotatable=0;allowArrows=0;points=[];outlineConnect=1;" parent="1" vertex="1">
          <mxGeometry x="-538.62" y="35" width="10" height="10" as="geometry" />
        </mxCell>
        <mxCell id="gVl5tPRsffCISzd8quaa-58" value="" style="rounded=0;orthogonalLoop=1;jettySize=auto;html=1;endArrow=oval;endFill=0;sketch=0;sourcePerimeterSpacing=0;targetPerimeterSpacing=0;endSize=10;exitX=0;exitY=0.5;exitDx=0;exitDy=0;" parent="1" source="gVl5tPRsffCISzd8quaa-38" target="gVl5tPRsffCISzd8quaa-57" edge="1">
          <mxGeometry relative="1" as="geometry">
            <mxPoint x="14" y="547" as="sourcePoint" />
            <mxPoint x="-48" y="547" as="targetPoint" />
            <Array as="points">
              <mxPoint x="-600" y="390" />
              <mxPoint x="-600" y="82" />
              <mxPoint x="-88" y="82" />
              <mxPoint x="50" y="82" />
            </Array>
          </mxGeometry>
        </mxCell>
        <mxCell id="gVl5tPRsffCISzd8quaa-57" value="" style="ellipse;whiteSpace=wrap;html=1;align=center;aspect=fixed;fillColor=none;strokeColor=none;resizable=0;perimeter=centerPerimeter;rotatable=0;allowArrows=0;points=[];outlineConnect=1;" parent="1" vertex="1">
          <mxGeometry x="42" y="-358" width="10" height="10" as="geometry" />
        </mxCell>
        <mxCell id="gVl5tPRsffCISzd8quaa-60" value="" style="rounded=0;orthogonalLoop=1;jettySize=auto;html=1;endArrow=oval;endFill=0;sketch=0;sourcePerimeterSpacing=0;targetPerimeterSpacing=0;endSize=10;exitX=0;exitY=0.5;exitDx=0;exitDy=0;" parent="1" source="gVl5tPRsffCISzd8quaa-28" target="gVl5tPRsffCISzd8quaa-59" edge="1">
          <mxGeometry relative="1" as="geometry">
            <mxPoint x="5" y="-33" as="sourcePoint" />
            <mxPoint x="-248" y="-33" as="targetPoint" />
            <Array as="points">
              <mxPoint x="-270" y="1127" />
              <mxPoint x="-270" y="1350" />
              <mxPoint x="-940" y="1350" />
              <mxPoint x="-938" y="-703" />
            </Array>
          </mxGeometry>
        </mxCell>
        <mxCell id="gVl5tPRsffCISzd8quaa-59" value="" style="ellipse;whiteSpace=wrap;html=1;align=center;aspect=fixed;fillColor=none;strokeColor=none;resizable=0;perimeter=centerPerimeter;rotatable=0;allowArrows=0;points=[];outlineConnect=1;" parent="1" vertex="1">
          <mxGeometry x="-158" y="-708" width="10" height="10" as="geometry" />
        </mxCell>
        <mxCell id="gVl5tPRsffCISzd8quaa-61" value="" style="endArrow=none;dashed=1;html=1;rounded=0;" parent="1" edge="1">
          <mxGeometry width="50" height="50" relative="1" as="geometry">
            <mxPoint x="-1120" y="142" as="sourcePoint" />
            <mxPoint x="1120" y="142" as="targetPoint" />
          </mxGeometry>
        </mxCell>
        <mxCell id="gVl5tPRsffCISzd8quaa-62" value="" style="endArrow=none;dashed=1;html=1;rounded=0;" parent="1" edge="1">
          <mxGeometry width="50" height="50" relative="1" as="geometry">
            <mxPoint x="-1120" y="662" as="sourcePoint" />
            <mxPoint x="1120" y="662" as="targetPoint" />
          </mxGeometry>
        </mxCell>
        <mxCell id="gVl5tPRsffCISzd8quaa-63" value="&lt;span style=&quot;font-size: 48px;&quot;&gt;Business Tier&lt;/span&gt;" style="text;html=1;align=center;verticalAlign=middle;whiteSpace=wrap;rounded=0;" parent="1" vertex="1">
          <mxGeometry x="772" y="400.38" width="340" height="73.25" as="geometry" />
        </mxCell>
        <mxCell id="gVl5tPRsffCISzd8quaa-65" value="&lt;span style=&quot;font-size: 48px;&quot;&gt;Resource Tier&lt;/span&gt;" style="text;html=1;align=center;verticalAlign=middle;whiteSpace=wrap;rounded=0;" parent="1" vertex="1">
          <mxGeometry x="772" y="958.75" width="340" height="73.25" as="geometry" />
        </mxCell>
        <mxCell id="gVl5tPRsffCISzd8quaa-68" value="&lt;span style=&quot;font-size: 48px;&quot;&gt;Client Tier&lt;/span&gt;" style="text;html=1;align=center;verticalAlign=middle;whiteSpace=wrap;rounded=0;" parent="1" vertex="1">
          <mxGeometry x="772" y="-161.25" width="340" height="73.25" as="geometry" />
        </mxCell>
        <mxCell id="gVl5tPRsffCISzd8quaa-72" value="" style="rounded=0;orthogonalLoop=1;jettySize=auto;html=1;endArrow=halfCircle;endFill=0;endSize=6;strokeWidth=1;sketch=0;exitX=0;exitY=0.5;exitDx=0;exitDy=0;" parent="1" source="dTqUqbFhe9OZ-m3vgkK9-143" edge="1">
          <mxGeometry relative="1" as="geometry">
            <mxPoint x="71.99000000000001" y="988.26" as="sourcePoint" />
            <mxPoint x="6.990000000000002" y="988" as="targetPoint" />
          </mxGeometry>
        </mxCell>
        <mxCell id="gVl5tPRsffCISzd8quaa-73" value="" style="rounded=0;orthogonalLoop=1;jettySize=auto;html=1;endArrow=oval;endFill=0;sketch=0;sourcePerimeterSpacing=0;targetPerimeterSpacing=0;endSize=10;exitX=0.5;exitY=1;exitDx=0;exitDy=0;" parent="1" source="gVl5tPRsffCISzd8quaa-86" target="dTqUqbFhe9OZ-m3vgkK9-121" edge="1">
          <mxGeometry relative="1" as="geometry">
            <mxPoint x="-498" y="552" as="sourcePoint" />
            <mxPoint x="-358" y="772" as="targetPoint" />
            <Array as="points">
              <mxPoint x="-793" y="1250" />
              <mxPoint x="-358" y="1250" />
            </Array>
          </mxGeometry>
        </mxCell>
        <mxCell id="dTqUqbFhe9OZ-m3vgkK9-121" value="" style="ellipse;whiteSpace=wrap;html=1;align=center;aspect=fixed;fillColor=none;strokeColor=none;resizable=0;perimeter=centerPerimeter;rotatable=0;allowArrows=0;points=[];outlineConnect=1;" parent="1" vertex="1">
          <mxGeometry x="-363" y="772" width="10" height="10" as="geometry" />
        </mxCell>
        <mxCell id="gVl5tPRsffCISzd8quaa-75" value="" style="whiteSpace=wrap;html=1;aspect=fixed;" parent="1" vertex="1">
          <mxGeometry x="-76.00999999999999" y="910" width="4.75" height="4.75" as="geometry" />
        </mxCell>
        <mxCell id="gVl5tPRsffCISzd8quaa-76" value="" style="endArrow=classic;html=1;rounded=0;entryX=0.5;entryY=1;entryDx=0;entryDy=0;" parent="1" target="gVl5tPRsffCISzd8quaa-75" edge="1">
          <mxGeometry width="50" height="50" relative="1" as="geometry">
            <mxPoint x="9.990000000000002" y="989" as="sourcePoint" />
            <mxPoint x="-63.01" y="892" as="targetPoint" />
            <Array as="points">
              <mxPoint x="-74.00999999999999" y="989" />
            </Array>
          </mxGeometry>
        </mxCell>
        <mxCell id="gVl5tPRsffCISzd8quaa-77" value="&lt;font style=&quot;font-size: 8px;&quot;&gt;&amp;lt;&amp;lt;delegate&amp;gt;&amp;gt;&lt;/font&gt;" style="text;html=1;align=center;verticalAlign=middle;whiteSpace=wrap;rounded=0;" parent="1" vertex="1">
          <mxGeometry x="-136.01" y="942" width="60" height="30" as="geometry" />
        </mxCell>
        <mxCell id="gVl5tPRsffCISzd8quaa-80" value="" style="endArrow=classic;html=1;rounded=0;entryX=0.552;entryY=0.958;entryDx=0;entryDy=0;entryPerimeter=0;exitX=0.5;exitY=0;exitDx=0;exitDy=0;" parent="1" source="gVl5tPRsffCISzd8quaa-81" target="gVl5tPRsffCISzd8quaa-82" edge="1">
          <mxGeometry width="50" height="50" relative="1" as="geometry">
            <mxPoint x="391.99" y="1362" as="sourcePoint" />
            <mxPoint x="466.99" y="1282" as="targetPoint" />
          </mxGeometry>
        </mxCell>
        <mxCell id="gVl5tPRsffCISzd8quaa-81" value="" style="whiteSpace=wrap;html=1;aspect=fixed;" parent="1" vertex="1">
          <mxGeometry x="388.99" y="1340" width="4.75" height="4.75" as="geometry" />
        </mxCell>
        <mxCell id="gVl5tPRsffCISzd8quaa-83" value="" style="rounded=0;orthogonalLoop=1;jettySize=auto;html=1;endArrow=oval;endFill=0;sketch=0;sourcePerimeterSpacing=0;targetPerimeterSpacing=0;endSize=10;exitX=1;exitY=0.5;exitDx=0;exitDy=0;" parent="1" source="dTqUqbFhe9OZ-m3vgkK9-145" target="gVl5tPRsffCISzd8quaa-82" edge="1">
          <mxGeometry relative="1" as="geometry">
            <mxPoint x="284.99" y="1257" as="sourcePoint" />
            <mxPoint x="376.99" y="1257" as="targetPoint" />
          </mxGeometry>
        </mxCell>
        <mxCell id="gVl5tPRsffCISzd8quaa-82" value="" style="ellipse;whiteSpace=wrap;html=1;align=center;aspect=fixed;fillColor=none;strokeColor=none;resizable=0;perimeter=centerPerimeter;rotatable=0;allowArrows=0;points=[];outlineConnect=1;" parent="1" vertex="1">
          <mxGeometry x="386.74" y="1252" width="10" height="10" as="geometry" />
        </mxCell>
        <mxCell id="gVl5tPRsffCISzd8quaa-84" value="&lt;font style=&quot;font-size: 8px;&quot;&gt;&amp;lt;&amp;lt;delegate&amp;gt;&amp;gt;&lt;/font&gt;" style="text;html=1;align=center;verticalAlign=middle;whiteSpace=wrap;rounded=0;" parent="1" vertex="1">
          <mxGeometry x="393.74" y="1282" width="60" height="30" as="geometry" />
        </mxCell>
        <mxCell id="gVl5tPRsffCISzd8quaa-86" value="" style="whiteSpace=wrap;html=1;aspect=fixed;" parent="1" vertex="1">
          <mxGeometry x="-795.37" y="1207.25" width="4.75" height="4.75" as="geometry" />
        </mxCell>
        <mxCell id="gVl5tPRsffCISzd8quaa-87" value="" style="endArrow=classic;html=1;rounded=0;entryX=0.473;entryY=1.158;entryDx=0;entryDy=0;entryPerimeter=0;exitX=0.5;exitY=0;exitDx=0;exitDy=0;" parent="1" source="gVl5tPRsffCISzd8quaa-86" target="gVl5tPRsffCISzd8quaa-88" edge="1">
          <mxGeometry width="50" height="50" relative="1" as="geometry">
            <mxPoint x="-813" y="1220.62" as="sourcePoint" />
            <mxPoint x="-857.9949999999999" y="1213.3700000000001" as="targetPoint" />
            <Array as="points" />
          </mxGeometry>
        </mxCell>
        <mxCell id="gVl5tPRsffCISzd8quaa-89" value="" style="rounded=0;orthogonalLoop=1;jettySize=auto;html=1;endArrow=oval;endFill=0;sketch=0;sourcePerimeterSpacing=0;targetPerimeterSpacing=0;endSize=10;exitX=0;exitY=0.5;exitDx=0;exitDy=0;" parent="1" source="dTqUqbFhe9OZ-m3vgkK9-140" target="gVl5tPRsffCISzd8quaa-88" edge="1">
          <mxGeometry relative="1" as="geometry">
            <mxPoint x="-733" y="1123.62" as="sourcePoint" />
            <mxPoint x="-793" y="1160.62" as="targetPoint" />
            <Array as="points">
              <mxPoint x="-793" y="1123.62" />
            </Array>
          </mxGeometry>
        </mxCell>
        <mxCell id="gVl5tPRsffCISzd8quaa-88" value="" style="ellipse;whiteSpace=wrap;html=1;align=center;aspect=fixed;fillColor=none;strokeColor=none;resizable=0;perimeter=centerPerimeter;rotatable=0;allowArrows=0;points=[];outlineConnect=1;" parent="1" vertex="1">
          <mxGeometry x="-798" y="1150" width="10" height="10" as="geometry" />
        </mxCell>
        <mxCell id="gVl5tPRsffCISzd8quaa-90" value="&lt;font style=&quot;font-size: 8px;&quot;&gt;&amp;lt;&amp;lt;delegate&amp;gt;&amp;gt;&lt;/font&gt;" style="text;html=1;align=center;verticalAlign=middle;whiteSpace=wrap;rounded=0;" parent="1" vertex="1">
          <mxGeometry x="-785.5" y="1172.25" width="60" height="30" as="geometry" />
        </mxCell>
      </root>
    </mxGraphModel>
  </diagram>
</mxfile>
